<svg width="96" height="646" viewBox="0 0 96 646" fill="none" xmlns="http://www.w3.org/2000/svg">
<path d="M49.5156 645.798C52.6785 644.959 54.5622 641.717 53.723 638.557C52.8838 635.396 49.6394 633.514 46.4765 634.352C43.3136 635.191 41.4298 638.433 42.2691 641.594C43.1083 644.754 46.3527 646.636 49.5156 645.798Z" fill="#F5F5F5"/>
<path d="M49.52 11.6469C52.6829 10.8083 54.5666 7.56636 53.7274 4.40582C52.8882 1.24528 49.6438 -0.637035 46.4809 0.201558C43.318 1.04015 41.4342 4.2821 42.2735 7.44264C43.1127 10.6032 46.3571 12.4855 49.52 11.6469Z" fill="#F5F5F5"/>
<path d="M49.8144 642.263V638.548H47.9991C23.6668 638.548 3.87278 618.762 3.87278 594.448C3.87278 570.134 23.6668 550.355 47.9991 550.355H49.8144V481.607C75.3084 480.649 95.7559 459.622 95.7559 433.915C95.7559 408.208 75.3084 387.188 49.8144 386.23V319.847H47.9991C23.6668 319.847 3.87278 300.068 3.87278 275.754C3.87278 251.44 23.6668 231.654 47.9991 231.654H49.8144V162.906C75.3084 161.948 95.7559 140.928 95.7559 115.221C95.7559 89.5141 75.3084 68.4869 49.8144 67.5292V2.07516C49.8144 1.07387 49.0011 0.26123 47.9991 0.26123C46.997 0.26123 46.1838 1.07387 46.1838 2.07516V71.1208H47.9991C72.3313 71.1208 92.1253 90.9072 92.1253 115.221C92.1253 139.535 72.3313 159.314 47.9991 159.314H46.1838V228.062C20.6897 229.02 0.242188 250.047 0.242188 275.754C0.242188 301.461 20.6897 322.489 46.1838 323.439V389.822H47.9991C72.3313 389.822 92.1253 409.601 92.1253 433.915C92.1253 458.229 72.3313 478.015 47.9991 478.015H46.1838V546.763C20.6897 547.721 0.242188 568.741 0.242188 594.448C0.242188 620.155 20.6897 641.182 46.1838 642.14V642.263H49.8144Z" fill="#F5F5F5"/>
<path d="M45 89.9999C46.6594 89.9999 48 91.3406 48 92.9999V103.5H42V92.9999C42 91.3406 43.3406 89.9999 45 89.9999ZM33 95.9999C33 94.3406 34.3406 92.9999 36 92.9999C37.6594 92.9999 39 94.3406 39 95.9999V103.5H33V95.9999ZM51 95.9999C51 94.3406 52.3406 92.9999 54 92.9999C55.6594 92.9999 57 94.3406 57 95.9999V105C57 106.659 55.6594 108 54 108C52.3406 108 51 106.659 51 105V95.9999ZM60 102C60 100.341 61.3406 98.9999 63 98.9999C64.6594 98.9999 66 100.341 66 102V108C66 109.659 64.6594 111 63 111C61.3406 111 60 109.659 60 108V102ZM51 110.25V110.194C51.8813 110.7 52.9031 111 54 111C55.2375 111 56.3813 110.625 57.3375 109.987C58.1531 112.322 60.3844 114 63 114C64.0969 114 65.1188 113.709 66 113.194V114C66 118.903 63.6469 123.262 60 126V135C60 136.659 58.6594 138 57 138H42C40.3406 138 39 136.659 39 135V127.65C37.3781 126.909 35.8875 125.887 34.6031 124.603L33.5156 123.516C31.2656 121.266 30 118.209 30 115.031V112.5C30 109.191 32.6906 106.5 36 106.5H44.25C46.3219 106.5 48 108.178 48 110.25C48 112.322 46.3219 114 44.25 114H39C38.175 114 37.5 114.675 37.5 115.5C37.5 116.325 38.175 117 39 117H44.25C47.9813 117 51 113.981 51 110.25Z" fill="#0B0A0C"/>
<path d="M28.4625 439.206L45.4031 455.022C46.1063 455.678 47.0344 456.043 48 456.043C48.9656 456.043 49.8938 455.678 50.5969 455.022L67.5375 439.206C70.3875 436.553 72 432.831 72 428.94V428.397C72 421.843 67.2656 416.256 60.8063 415.178C56.5312 414.465 52.1812 415.862 49.125 418.918L48 420.043L46.875 418.918C43.8188 415.862 39.4688 414.465 35.1938 415.178C28.7344 416.256 24 421.843 24 428.397V428.94C24 432.831 25.6125 436.553 28.4625 439.206Z" fill="#0B0A0C"/>
<g clip-path="url(#clip0_0_1)">
<path d="M55.5 575.5C55.5 573.016 53.4844 571 51 571C48.5156 571 46.5 573.016 46.5 575.5C46.5 577.984 48.5156 580 51 580C53.4844 580 55.5 577.984 55.5 575.5ZM37.2844 587.453C38.2125 586.525 39.4781 586 40.8 586C40.9781 586 41.1562 586.009 41.325 586.028L38.4 594.812C37.5281 597.437 38.5594 600.325 40.9125 601.797L48.9937 606.85L46.6125 615.175C46.1531 616.769 47.0812 618.428 48.675 618.887C50.2687 619.347 51.9281 618.419 52.3875 616.825L55.0781 607.412C55.6312 605.481 54.8344 603.419 53.1375 602.359L47.8125 599.031L50.7094 591.306L51.1875 592.459C52.5937 595.816 55.8656 598 59.5031 598H61.5C63.1594 598 64.5 596.659 64.5 595C64.5 593.341 63.1594 592 61.5 592H59.5031C58.2937 592 57.1969 591.269 56.7375 590.153L56.1469 588.747C54.7781 585.456 52.0125 582.944 48.6 581.894L44.0344 580.487C42.9937 580.169 41.9062 580 40.8094 580C37.9031 580 35.1094 581.153 33.0562 583.216L30.8812 585.381C29.7094 586.553 29.7094 588.456 30.8812 589.628C32.0531 590.8 33.9562 590.8 35.1281 589.628L37.2937 587.462L37.2844 587.453ZM34.05 604H28.5C26.8406 604 25.5 605.341 25.5 607C25.5 608.659 26.8406 610 28.5 610H35.025C36.8062 610 38.4187 608.95 39.1406 607.328L40.2187 604.9L39.3281 604.337C37.6875 603.316 36.4687 601.825 35.775 600.128L34.05 604Z" fill="#0B0A0C"/>
</g>
<g clip-path="url(#clip1_0_1)">
<path d="M48 301C61.2562 301 72 290.256 72 277C72 263.744 61.2562 253 48 253C34.7438 253 24 263.744 24 277C24 290.256 34.7438 301 48 301ZM48 265C49.2469 265 50.25 266.003 50.25 267.25V277.75C50.25 278.997 49.2469 280 48 280C46.7531 280 45.75 278.997 45.75 277.75V267.25C45.75 266.003 46.7531 265 48 265ZM51 286C51 287.659 49.6594 289 48 289C46.3406 289 45 287.659 45 286C45 284.341 46.3406 283 48 283C49.6594 283 51 284.341 51 286Z" fill="#0B0A0C"/>
</g>
<defs>
<clipPath id="clip0_0_1">
<rect width="42" height="48" fill="white" transform="translate(24 571)"/>
</clipPath>
<clipPath id="clip1_0_1">
<rect width="48" height="48" fill="white" transform="translate(24 253)"/>
</clipPath>
</defs>
</svg>
