<svg width="37" height="30" viewBox="0 0 37 30" fill="none" xmlns="http://www.w3.org/2000/svg">
<g clip-path="url(#clip0_1_504)">
<path fill-rule="evenodd" clip-rule="evenodd" d="M0.50066 0.824182C0.55109 0.576756 0.655102 0.382912 1.11686 0.181189C2.07032 -0.238016 4.16792 0.203253 4.31764 0.21586C5.91724 0.529477 7.49005 0.978626 9.03134 1.53021C11.3165 2.34814 13.5276 3.39142 15.6677 4.48672C17.9355 5.67341 20.1135 6.99092 22.1244 8.5133C24.159 10.0546 26.036 11.7803 27.738 13.6588C28.7608 14.7888 29.7221 15.9707 30.5921 17.2221C32.5872 20.095 34.1522 23.2485 35.3609 26.6274C35.4035 26.7251 35.3578 26.8386 35.2601 26.8811C35.1624 26.9237 35.0489 26.8811 35.0048 26.7818C33.3862 23.6867 31.38 20.9208 29.1485 18.3457C28.1935 17.2457 27.2053 16.1819 26.1715 15.1607C24.4553 13.4681 22.6082 11.9126 20.6588 10.4659C18.7298 9.03337 16.7173 7.69065 14.5787 6.52128C12.8924 5.57571 11.1557 4.67268 9.37175 3.88155C7.60352 3.09829 5.79589 2.42063 3.92995 1.9573L0.694504 1.00699C0.560547 0.932923 0.483322 0.896676 0.499081 0.825758" fill="black"/>
<path fill-rule="evenodd" clip-rule="evenodd" d="M34.2641 15.3262C34.242 14.6012 34.8929 14.0134 35.6036 14.1615C35.6604 14.1741 35.7013 14.1868 35.7171 14.2025C35.8574 14.3333 35.9362 14.5949 36.0638 14.9527C36.1741 15.2647 36.2592 15.6272 36.3191 16.0259C36.4862 17.1149 36.4641 18.3189 36.4783 18.4639C36.5571 20.5978 36.9905 23.1193 37.0078 25.4706C37.0141 26.6069 36.9243 27.7085 36.6769 28.7187C36.628 28.9125 36.5413 29.1537 36.4152 29.3459C36.3081 29.5098 36.1741 29.6485 36.0228 29.7525C35.6809 29.9889 35.2616 30.0661 34.7999 29.9369C34.3334 29.8077 33.7062 29.264 33.484 29.0891C32.5274 28.3263 31.5487 27.6155 30.5732 26.9158C29.6528 26.2539 28.7119 25.6345 27.7853 24.9837C26.3843 24.0018 25.0337 22.9901 23.5475 22.065C23.3206 21.9562 23.2276 21.6836 23.3363 21.4551C23.4467 21.2282 23.7193 21.1336 23.9462 21.2439C25.9556 21.9767 27.894 22.7111 29.7221 23.7213C31.4636 24.6827 33.0616 25.8835 34.6691 27.1254C34.7384 26.5896 34.7668 26.0348 34.7715 25.4675C34.7904 23.1382 34.4043 20.6356 34.3649 18.5254L34.2672 15.3246L34.2641 15.3262Z" fill="black"/>
</g>
<defs>
<clipPath id="clip0_1_504">
<rect width="36.5087" height="30" fill="white" transform="matrix(-1 0 0 1 37.0078 -4.57764e-05)"/>
</clipPath>
</defs>
</svg>
