<svg width="35" height="46" viewBox="0 0 35 46" fill="none" xmlns="http://www.w3.org/2000/svg">
<path d="M28.933 4.00711C29.4553 2.77625 29.0658 1.33875 27.9945 0.548127C26.9233 -0.242498 25.4625 -0.170623 24.4621 0.709846L1.79801 20.8348C0.912694 21.6255 0.59398 22.8923 1.01008 24.0063C1.42618 25.1204 2.48856 25.8751 3.66603 25.8751H13.5373L6.72923 41.993C6.20689 43.2239 6.59643 44.6614 7.66767 45.452C8.7389 46.2427 10.1997 46.1708 11.2001 45.2903L33.8642 25.1653C34.7495 24.3747 35.0682 23.1079 34.6521 21.9938C34.236 20.8798 33.1825 20.1341 31.9962 20.1341H22.1249L28.933 4.00711Z" fill="#0B0A0C"/>
</svg>
