<svg width="42" height="42" viewBox="0 0 42 42" fill="none" xmlns="http://www.w3.org/2000/svg">
<path d="M31.6554 5.78037C32.7784 4.65732 32.7784 2.8335 31.6554 1.71045C30.5323 0.587402 28.7085 0.587402 27.5854 1.71045L15.2499 14.055L10.0929 8.89795C8.96982 7.7749 7.146 7.7749 6.02295 8.89795C4.8999 10.021 4.8999 11.8448 6.02295 12.9679L13.2104 20.1554C14.3335 21.2784 16.1573 21.2784 17.2804 20.1554L31.6554 5.78037ZM40.2804 17.2804C41.4034 16.1573 41.4034 14.3335 40.2804 13.2105C39.1573 12.0874 37.3335 12.0874 36.2104 13.2105L15.2499 34.18L5.78037 24.7194C4.65732 23.5964 2.8335 23.5964 1.71045 24.7194C0.587402 25.8425 0.587402 27.6663 1.71045 28.7894L13.2104 40.2894C14.3335 41.4124 16.1573 41.4124 17.2804 40.2894L40.2804 17.2894V17.2804Z" fill="#0B0A0C"/>
</svg>
