<svg width="20" height="20" viewBox="0 0 20 20" fill="none" xmlns="http://www.w3.org/2000/svg">
<path d="M10 2.85714C11.7143 2.85714 13.2902 3.45982 14.5223 4.46875L13.067 5.92411C12.8616 6.12946 12.8036 6.4375 12.9107 6.70089C13.0179 6.96429 13.2812 7.14286 13.5714 7.14286H18.5714C18.9643 7.14286 19.2857 6.82143 19.2857 6.42857V1.42857C19.2857 1.13839 19.1116 0.879464 18.8438 0.767857C18.5759 0.65625 18.2679 0.71875 18.067 0.924107L16.5491 2.44196C14.7946 0.919643 12.5045 0 10 0C9.51339 0 9.04018 0.0357143 8.57143 0.102679V3C9.03125 2.90625 9.50893 2.85714 10 2.85714ZM4.46875 5.47768L5.92411 6.93304C6.12946 7.13839 6.4375 7.19643 6.70089 7.08929C6.96429 6.98214 7.14286 6.71875 7.14286 6.42857V1.42857C7.14286 1.03571 6.82143 0.714286 6.42857 0.714286H1.42857C1.13839 0.714286 0.879464 0.888393 0.767857 1.15625C0.65625 1.42411 0.71875 1.73214 0.924107 1.93304L2.44196 3.45089C0.919643 5.20536 0 7.49554 0 10C0 10.4866 0.0357143 10.9598 0.102679 11.4286H3C2.90625 10.9688 2.85714 10.4911 2.85714 10C2.85714 8.28571 3.45982 6.70982 4.46875 5.47768ZM19.8973 8.57143H17C17.0938 9.03125 17.1429 9.50893 17.1429 10C17.1429 11.7143 16.5402 13.2902 15.5312 14.5223L14.0759 13.067C13.8705 12.8616 13.5625 12.8036 13.2991 12.9107C13.0357 13.0179 12.8571 13.2812 12.8571 13.5714V18.5714C12.8571 18.9643 13.1786 19.2857 13.5714 19.2857H18.5714C18.8616 19.2857 19.1205 19.1116 19.2321 18.8438C19.3438 18.5759 19.2812 18.2679 19.0759 18.067L17.558 16.5491C19.0804 14.7946 20 12.5045 20 10C20 9.51339 19.9643 9.04018 19.8973 8.57143ZM10 17.1429C8.28571 17.1429 6.70982 16.5402 5.47768 15.5312L6.93304 14.0759C7.13839 13.8705 7.19643 13.5625 7.08929 13.2991C6.98214 13.0357 6.71875 12.8571 6.42857 12.8571H1.42857C1.03571 12.8571 0.714286 13.1786 0.714286 13.5714V18.5714C0.714286 18.8616 0.888393 19.1205 1.15625 19.2321C1.42411 19.3438 1.73214 19.2812 1.93304 19.0759L3.45089 17.558C5.20536 19.0804 7.49554 20 10 20C10.4866 20 10.9598 19.9643 11.4286 19.8973V17C10.9688 17.0938 10.4911 17.1429 10 17.1429Z" fill="white"/>
</svg>
