<svg width="48" height="48" viewBox="0 0 48 48" fill="none" xmlns="http://www.w3.org/2000/svg">
<g clip-path="url(#clip0_1_260)">
<path d="M24 47.9999C37.2562 47.9999 48 37.2562 48 23.9999C48 10.7437 37.2562 -6.10352e-05 24 -6.10352e-05C10.7438 -6.10352e-05 0 10.7437 0 23.9999C0 37.2562 10.7438 47.9999 24 47.9999ZM24 11.9999C25.2469 11.9999 26.25 13.0031 26.25 14.2499V24.7499C26.25 25.9968 25.2469 26.9999 24 26.9999C22.7531 26.9999 21.75 25.9968 21.75 24.7499V14.2499C21.75 13.0031 22.7531 11.9999 24 11.9999ZM27 32.9999C27 34.6593 25.6594 35.9999 24 35.9999C22.3406 35.9999 21 34.6593 21 32.9999C21 31.3406 22.3406 29.9999 24 29.9999C25.6594 29.9999 27 31.3406 27 32.9999Z" fill="#0B0A0C"/>
</g>
<defs>
<clipPath id="clip0_1_260">
<rect width="48" height="48" fill="white"/>
</clipPath>
</defs>
</svg>
