<svg width="38" height="44" viewBox="0 0 38 44" fill="none" xmlns="http://www.w3.org/2000/svg">
<g clip-path="url(#clip0_1_286)">
<path d="M13.4899 0.46367C14.1505 -0.163674 15.1751 -0.15508 15.8356 0.472263C18.1729 2.69804 20.3661 5.0957 22.4155 7.69101C23.347 6.45351 24.4055 5.10429 25.5487 4.00429C26.2177 3.36836 27.2508 3.36836 27.9198 4.01289C30.8498 6.84883 33.331 10.5957 35.0755 14.1535C36.7946 17.6598 37.9378 21.2434 37.9378 23.7699C37.9378 34.7355 29.4865 43.9996 18.9689 43.9996C8.33276 43.9996 0 34.727 0 23.7613C0 20.4613 1.50735 16.4309 3.84459 12.4434C6.20723 8.3957 9.54372 4.17617 13.4899 0.46367ZM19.1128 35.7496C21.2553 35.7496 23.1522 35.148 24.939 33.9449C28.5041 31.4184 29.4611 26.3652 27.3186 22.3949C27.0815 21.9137 26.8444 21.4324 26.4887 20.9512L22.2038 26.0043C22.2038 26.0043 15.3106 17.1012 14.8279 16.4996C11.2712 20.9512 9.48444 23.4777 9.48444 26.3652C9.48444 32.2605 13.7694 35.7496 19.1128 35.7496Z" fill="#0B0A0C"/>
</g>
<defs>
<clipPath id="clip0_1_286">
<rect width="37.9378" height="44" fill="white"/>
</clipPath>
</defs>
</svg>
