<svg width="37" height="48" viewBox="0 0 37 48" fill="none" xmlns="http://www.w3.org/2000/svg">
<path d="M12.34 47.1526V43.5422C12.34 40.2386 15.018 37.5605 18.3217 37.5605H24.8189C25.1688 37.5605 25.4546 37.2757 25.4557 36.9258L25.4562 36.7384C25.4567 36.5647 25.3935 36.3941 25.271 36.2708C25.1506 36.1499 24.9902 36.0832 24.8197 36.0832H6.15057C2.84689 36.0832 0.168823 33.4051 0.168823 30.1015V29.8981C0.168823 26.5944 2.84689 23.9163 6.15057 23.9163H30.941C31.2928 23.9163 31.5778 23.6313 31.5778 23.2795V23.173C31.5778 22.8212 31.2928 22.5362 30.941 22.5362H8.96209C7.37484 22.5362 5.87967 21.921 4.75202 20.804C3.62437 19.687 2.99529 18.1977 2.98034 16.6105L2.97981 16.5435C2.96486 14.9354 3.5798 13.4205 4.71199 12.2779C5.84391 11.1353 7.35322 10.506 8.96156 10.506H25.2035C25.5534 10.506 25.8392 10.2212 25.8403 9.87128V9.81843C25.8408 9.65829 25.7874 9.50082 25.6812 9.38098C25.5584 9.24246 25.3871 9.16559 25.2037 9.16559H20.7892C17.4855 9.16559 14.8075 6.48752 14.8075 3.18384V0.846605C14.8075 0.378997 15.1865 0 15.6541 0H19.306C19.7737 0 20.1527 0.378997 20.1527 0.846605V3.18358C20.1527 3.53535 20.4377 3.8204 20.7895 3.8204H25.204C26.8051 3.8204 28.3096 4.44494 29.4402 5.57873C30.5708 6.71252 31.1908 8.2189 31.186 9.82003V9.83498C31.1812 11.4294 30.5631 12.9689 29.436 14.0968C28.3059 15.2279 26.8025 15.8509 25.204 15.8509H8.97837C8.80382 15.8509 8.63274 15.9149 8.5097 16.0391C8.38906 16.1608 8.32313 16.3222 8.32474 16.4936L8.32527 16.5606C8.32847 16.9075 8.61486 17.1913 8.96183 17.1913H30.9549C34.2508 17.1913 36.9227 19.8632 36.9227 23.1591V23.2798C36.9227 26.5835 34.2447 29.2615 30.941 29.2615H6.15057C5.7988 29.2615 5.51375 29.5466 5.51375 29.8983V30.1017C5.51375 30.4535 5.7988 30.7385 6.15057 30.7385H24.7673C26.3714 30.7385 27.9208 31.3594 29.0537 32.4947C30.1857 33.6288 30.8065 35.1362 30.8017 36.7384L30.8011 36.9424C30.7963 38.5405 30.1689 40.0419 29.0348 41.1684C27.9034 42.2924 26.3621 42.9062 24.7671 42.9062H18.3223C17.9705 42.9062 17.6854 43.1913 17.6854 43.543V47.1534C17.6854 47.621 17.3064 48 16.8388 48H13.1868C12.7192 48 12.3402 47.621 12.3402 47.1534L12.34 47.1526Z" fill="#0B0A0C"/>
</svg>
