<svg width="48" height="48" viewBox="0 0 48 48" fill="none" xmlns="http://www.w3.org/2000/svg">
<path d="M4.4625 29.2059L21.4031 45.0215C22.1063 45.6778 23.0344 46.0434 24 46.0434C24.9656 46.0434 25.8938 45.6778 26.5969 45.0215L43.5375 29.2059C46.3875 26.5528 48 22.8309 48 18.9403V18.3965C48 11.8434 43.2656 6.25591 36.8063 5.17778C32.5312 4.46528 28.1812 5.86216 25.125 8.91841L24 10.0434L22.875 8.91841C19.8188 5.86216 15.4688 4.46528 11.1938 5.17778C4.73438 6.25591 0 11.8434 0 18.3965V18.9403C0 22.8309 1.6125 26.5528 4.4625 29.2059Z" fill="#0B0A0C"/>
</svg>
