<svg width="47" height="48" viewBox="0 0 47 48" fill="none" xmlns="http://www.w3.org/2000/svg">
<path d="M24.3846 0.27337C23.9804 0.0942655 23.5474 0 23.0951 0C22.6428 0 22.2098 0.0942655 21.8056 0.27337L3.68563 7.80518C1.56858 8.68185 -0.00957917 10.7274 4.37699e-05 13.1972C0.0481585 22.5483 3.97432 39.6575 20.5546 47.4344C22.1617 48.1885 24.0285 48.1885 25.6355 47.4344C42.2159 39.6575 46.142 22.5483 46.1901 13.1972C46.1998 10.7274 44.6216 8.68185 42.5046 7.80518L24.3846 0.27337ZM12.3174 20.861C12.3174 17.6748 14.9541 15.0825 18.2163 15.0825C19.7752 15.0825 21.2764 15.6952 22.383 16.7698L23.0951 17.4674L23.8072 16.7698C24.9138 15.6858 26.415 15.0825 27.9739 15.0825C31.2265 15.0825 33.8728 17.6654 33.8728 20.861C33.8728 22.3881 33.2473 23.8586 32.1503 24.9427L24.1921 32.7384C23.5955 33.3229 22.6139 33.3229 22.0173 32.7384L14.0592 24.9427C12.9525 23.8586 12.3366 22.3881 12.3366 20.861H12.3174Z" fill="#0B0A0C"/>
</svg>
