<svg width="101" height="26" viewBox="0 0 101 26" fill="none" xmlns="http://www.w3.org/2000/svg">
<path d="M0.304 25V1.16H4.656V21.16H14.864V25H0.304ZM30.398 25.384C28.6487 25.384 27.0167 25.0747 25.502 24.456C23.9873 23.8373 22.6647 22.9733 21.534 21.864C20.4033 20.7547 19.518 19.4533 18.878 17.96C18.2593 16.4453 17.95 14.8133 17.95 13.064C17.95 11.2933 18.2593 9.66133 18.878 8.168C19.4967 6.67467 20.3713 5.37333 21.502 4.264C22.6327 3.15467 23.9553 2.30133 25.47 1.704C26.9847 1.08533 28.6273 0.775999 30.398 0.775999C32.1687 0.775999 33.8113 1.08533 35.326 1.704C36.8407 2.32266 38.1633 3.18667 39.294 4.296C40.4247 5.384 41.2993 6.67467 41.918 8.168C42.558 9.66133 42.878 11.2933 42.878 13.064C42.878 14.8133 42.558 16.4453 41.918 17.96C41.278 19.4533 40.3927 20.7547 39.262 21.864C38.1313 22.9733 36.8087 23.8373 35.294 24.456C33.8007 25.0747 32.1687 25.384 30.398 25.384ZM30.398 21.416C31.5713 21.416 32.6487 21.2133 33.63 20.808C34.6113 20.3813 35.4647 19.7947 36.19 19.048C36.9367 18.3013 37.502 17.416 37.886 16.392C38.2913 15.368 38.494 14.2587 38.494 13.064C38.494 11.8693 38.2913 10.7707 37.886 9.768C37.502 8.744 36.9367 7.85867 36.19 7.112C35.4647 6.344 34.6113 5.75733 33.63 5.352C32.6487 4.94667 31.5713 4.744 30.398 4.744C29.246 4.744 28.1793 4.94667 27.198 5.352C26.2167 5.75733 25.3527 6.344 24.606 7.112C23.8807 7.85867 23.3153 8.744 22.91 9.768C22.5047 10.7707 22.302 11.8693 22.302 13.064C22.302 14.2587 22.5047 15.368 22.91 16.392C23.3153 17.416 23.8807 18.3013 24.606 19.048C25.3527 19.7947 26.2167 20.3813 27.198 20.808C28.1793 21.2133 29.246 21.416 30.398 21.416ZM59.6438 25.384C57.9371 25.384 56.3584 25.0747 54.9078 24.456C53.4571 23.8373 52.1878 22.9733 51.0998 21.864C50.0118 20.7547 49.1584 19.4533 48.5398 17.96C47.9424 16.4667 47.6438 14.8347 47.6438 13.064C47.6438 11.2933 47.9318 9.66133 48.5078 8.168C49.1051 6.65333 49.9371 5.352 51.0038 4.264C52.0918 3.15467 53.3611 2.30133 54.8118 1.704C56.2624 1.08533 57.8411 0.775999 59.5478 0.775999C61.2544 0.775999 62.7798 1.064 64.1238 1.64C65.4891 2.216 66.6411 2.984 67.5798 3.944C68.5184 4.88267 69.1904 5.91733 69.5958 7.048L65.7238 8.904C65.2758 7.66667 64.5184 6.664 63.4518 5.896C62.3851 5.128 61.0838 4.744 59.5478 4.744C58.0544 4.744 56.7318 5.096 55.5798 5.8C54.4491 6.504 53.5638 7.47467 52.9238 8.712C52.3051 9.94933 51.9958 11.4 51.9958 13.064C51.9958 14.728 52.3158 16.1893 52.9558 17.448C53.6171 18.6853 54.5238 19.656 55.6758 20.36C56.8278 21.064 58.1504 21.416 59.6438 21.416C60.8598 21.416 61.9798 21.1813 63.0038 20.712C64.0278 20.2213 64.8491 19.5387 65.4678 18.664C66.0864 17.768 66.3958 16.712 66.3958 15.496V13.672L68.3798 15.4H59.5478V11.72H70.7478V14.12C70.7478 15.9547 70.4384 17.576 69.8198 18.984C69.2011 20.392 68.3584 21.576 67.2918 22.536C66.2464 23.4747 65.0624 24.1893 63.7398 24.68C62.4171 25.1493 61.0518 25.384 59.6438 25.384ZM87.5355 25.384C85.7862 25.384 84.1542 25.0747 82.6395 24.456C81.1248 23.8373 79.8022 22.9733 78.6715 21.864C77.5408 20.7547 76.6555 19.4533 76.0155 17.96C75.3968 16.4453 75.0875 14.8133 75.0875 13.064C75.0875 11.2933 75.3968 9.66133 76.0155 8.168C76.6342 6.67467 77.5088 5.37333 78.6395 4.264C79.7702 3.15467 81.0928 2.30133 82.6075 1.704C84.1222 1.08533 85.7648 0.775999 87.5355 0.775999C89.3062 0.775999 90.9488 1.08533 92.4635 1.704C93.9782 2.32266 95.3008 3.18667 96.4315 4.296C97.5622 5.384 98.4368 6.67467 99.0555 8.168C99.6955 9.66133 100.016 11.2933 100.016 13.064C100.016 14.8133 99.6955 16.4453 99.0555 17.96C98.4155 19.4533 97.5302 20.7547 96.3995 21.864C95.2688 22.9733 93.9462 23.8373 92.4315 24.456C90.9382 25.0747 89.3062 25.384 87.5355 25.384ZM87.5355 21.416C88.7088 21.416 89.7862 21.2133 90.7675 20.808C91.7488 20.3813 92.6022 19.7947 93.3275 19.048C94.0742 18.3013 94.6395 17.416 95.0235 16.392C95.4288 15.368 95.6315 14.2587 95.6315 13.064C95.6315 11.8693 95.4288 10.7707 95.0235 9.768C94.6395 8.744 94.0742 7.85867 93.3275 7.112C92.6022 6.344 91.7488 5.75733 90.7675 5.352C89.7862 4.94667 88.7088 4.744 87.5355 4.744C86.3835 4.744 85.3168 4.94667 84.3355 5.352C83.3542 5.75733 82.4902 6.344 81.7435 7.112C81.0182 7.85867 80.4528 8.744 80.0475 9.768C79.6422 10.7707 79.4395 11.8693 79.4395 13.064C79.4395 14.2587 79.6422 15.368 80.0475 16.392C80.4528 17.416 81.0182 18.3013 81.7435 19.048C82.4902 19.7947 83.3542 20.3813 84.3355 20.808C85.3168 21.2133 86.3835 21.416 87.5355 21.416Z" fill="black"/>
</svg>
