<svg width="42" height="48" viewBox="0 0 42 48" fill="none" xmlns="http://www.w3.org/2000/svg">
<path d="M24.4361 0C10.9334 0 0 10.7464 0 24C0 37.2536 10.9334 48 24.4361 48C31.0618 48 37.0642 45.4071 41.4703 41.2071C42.017 40.6821 42.1591 39.8679 41.8093 39.2036C41.4594 38.5393 40.705 38.1643 39.9506 38.2929C38.8791 38.475 37.7858 38.5714 36.6596 38.5714C26.0652 38.5714 17.4716 30.1286 17.4716 19.7143C17.4716 12.6643 21.4076 6.525 27.2351 3.28929C27.902 2.91429 28.2409 2.16429 28.0769 1.43571C27.9129 0.707143 27.2788 0.160714 26.5135 0.0964287C25.8247 0.0428573 25.1359 0.0107141 24.4361 0.0107141V0Z" fill="#0B0A0C"/>
</svg>
