<svg width="20" height="20" viewBox="0 0 20 20" fill="none" xmlns="http://www.w3.org/2000/svg">
<path d="M19.5143 2.84766C20.1654 2.19661 20.1654 1.13932 19.5143 0.488281C18.8633 -0.16276 17.806 -0.16276 17.1549 0.488281L0.488281 17.1549C-0.16276 17.806 -0.16276 18.8633 0.488281 19.5143C1.13932 20.1654 2.19661 20.1654 2.84766 19.5143L19.5143 2.84766ZM6.67057 3.33724C6.67057 1.4987 5.17578 0.00390609 3.33724 0.00390609C1.4987 0.00390609 0.00390624 1.4987 0.00390624 3.33724C0.00390624 5.17578 1.4987 6.67057 3.33724 6.67057C5.17578 6.67057 6.67057 5.17578 6.67057 3.33724ZM20.0039 16.6706C20.0039 14.832 18.5091 13.3372 16.6706 13.3372C14.832 13.3372 13.3372 14.832 13.3372 16.6706C13.3372 18.5091 14.832 20.0039 16.6706 20.0039C18.5091 20.0039 20.0039 18.5091 20.0039 16.6706Z" fill="white"/>
</svg>
