<svg width="40" height="48" viewBox="0 0 40 48" fill="none" xmlns="http://www.w3.org/2000/svg">
<path d="M30.5 4.49994C30.5 2.01556 28.4844 -6.10352e-05 26 -6.10352e-05C23.5156 -6.10352e-05 21.5 2.01556 21.5 4.49994C21.5 6.98431 23.5156 8.99994 26 8.99994C28.4844 8.99994 30.5 6.98431 30.5 4.49994ZM12.2844 16.4531C13.2125 15.5249 14.4781 14.9999 15.8 14.9999C15.9781 14.9999 16.1562 15.0093 16.325 15.0281L13.4 23.8124C12.5281 26.4374 13.5594 29.3249 15.9125 30.7968L23.9937 35.8499L21.6125 44.1749C21.1531 45.7687 22.0812 47.4281 23.675 47.8874C25.2687 48.3468 26.9281 47.4187 27.3875 45.8249L30.0781 36.4124C30.6312 34.4812 29.8344 32.4187 28.1375 31.3593L22.8125 28.0312L25.7094 20.3062L26.1875 21.4593C27.5937 24.8156 30.8656 26.9999 34.5031 26.9999H36.5C38.1594 26.9999 39.5 25.6593 39.5 23.9999C39.5 22.3406 38.1594 20.9999 36.5 20.9999H34.5031C33.2937 20.9999 32.1969 20.2687 31.7375 19.1531L31.1469 17.7468C29.7781 14.4562 27.0125 11.9437 23.6 10.8937L19.0344 9.48744C17.9937 9.16869 16.9062 8.99994 15.8094 8.99994C12.9031 8.99994 10.1094 10.1531 8.05625 12.2156L5.88125 14.3812C4.70937 15.5531 4.70937 17.4562 5.88125 18.6281C7.05312 19.7999 8.95625 19.7999 10.1281 18.6281L12.2937 16.4624L12.2844 16.4531ZM9.05 32.9999H3.5C1.84062 32.9999 0.5 34.3406 0.5 35.9999C0.5 37.6593 1.84062 38.9999 3.5 38.9999H10.025C11.8062 38.9999 13.4187 37.9499 14.1406 36.3281L15.2187 33.8999L14.3281 33.3374C12.6875 32.3156 11.4687 30.8249 10.775 29.1281L9.05 32.9999Z" fill="#0B0A0C"/>
</svg>
