<svg width="44" height="46" viewBox="0 0 44 46" fill="none" xmlns="http://www.w3.org/2000/svg">
<path d="M23.2039 0.260547C22.8266 0.0898438 22.4223 0 22 0C21.5778 0 21.1735 0.0898438 20.7961 0.260547L3.87856 7.43906C1.90199 8.27461 0.428556 10.2242 0.437541 12.5781C0.482463 21.4906 4.14809 37.7973 19.6282 45.2094C21.1286 45.9281 22.8715 45.9281 24.3719 45.2094C39.852 37.7973 43.5176 21.4906 43.5625 12.5781C43.5715 10.2242 42.0981 8.27461 40.1215 7.43906L23.2039 0.260547ZM22 10.0625C22.7907 10.0625 23.4375 10.7094 23.4375 11.5C23.4375 14.4648 27.0223 15.9473 29.1157 13.8539C29.6727 13.2969 30.5891 13.2969 31.1461 13.8539C31.7032 14.4109 31.7032 15.3273 31.1461 15.8844C29.0528 17.9777 30.5352 21.5625 33.5 21.5625C34.2907 21.5625 34.9375 22.2094 34.9375 23C34.9375 23.7906 34.2907 24.4375 33.5 24.4375C30.5352 24.4375 29.0528 28.0223 31.1461 30.1156C31.7032 30.6727 31.7032 31.5891 31.1461 32.1461C30.5891 32.7031 29.6727 32.7031 29.1157 32.1461C27.0223 30.0527 23.4375 31.5352 23.4375 34.5C23.4375 35.2906 22.7907 35.9375 22 35.9375C21.2094 35.9375 20.5625 35.2906 20.5625 34.5C20.5625 31.5352 16.9778 30.0527 14.8844 32.1461C14.3274 32.7031 13.411 32.7031 12.8539 32.1461C12.2969 31.5891 12.2969 30.6727 12.8539 30.1156C14.9473 28.0223 13.4649 24.4375 10.5 24.4375C9.70942 24.4375 9.06254 23.7906 9.06254 23C9.06254 22.2094 9.70942 21.5625 10.5 21.5625C13.4649 21.5625 14.9473 17.9777 12.8539 15.8844C12.2969 15.3273 12.2969 14.4109 12.8539 13.8539C13.411 13.2969 14.3274 13.2969 14.8844 13.8539C16.9778 15.9473 20.5625 14.4648 20.5625 11.5C20.5625 10.7094 21.2094 10.0625 22 10.0625ZM19.8438 23C21.0387 23 22 22.0387 22 20.8437C22 19.6488 21.0387 18.6875 19.8438 18.6875C18.6489 18.6875 17.6875 19.6488 17.6875 20.8437C17.6875 22.0387 18.6489 23 19.8438 23ZM26.3125 25.875C26.3125 25.0844 25.6657 24.4375 24.875 24.4375C24.0844 24.4375 23.4375 25.0844 23.4375 25.875C23.4375 26.6656 24.0844 27.3125 24.875 27.3125C25.6657 27.3125 26.3125 26.6656 26.3125 25.875Z" fill="#0B0A0C"/>
</svg>
