<svg width="40" height="36" viewBox="0 0 40 36" fill="none" xmlns="http://www.w3.org/2000/svg">
<path d="M24.4844 0.571972C26.5156 0.978222 27.8359 2.95479 27.4297 4.98603L27.25 5.87666C26.8359 7.9626 26.0703 9.94697 25 11.7517H36.25C38.3203 11.7517 40 13.4313 40 15.5017C40 17.4782 38.4766 19.0954 36.5391 19.2438C37.1406 19.9079 37.5 20.7907 37.5 21.7517C37.5 23.5798 36.1875 25.1032 34.4609 25.4313C34.8047 25.9938 35 26.6657 35 27.3767C35 29.0407 33.9141 30.4548 32.4141 30.9392C32.4688 31.197 32.5 31.4704 32.5 31.7517C32.5 33.822 30.8203 35.5017 28.75 35.5017H23.0078C21.5234 35.5017 20.0781 35.0642 18.8438 34.2438L15.8359 32.236C13.75 30.8454 12.5 28.5017 12.5 25.9938V23.0017V19.2517V17.3063C12.5 15.0251 13.5391 12.8767 15.3125 11.447L15.8906 10.986C17.9609 9.32978 19.375 7.00166 19.8906 4.40791L20.0703 3.51728C20.4766 1.48603 22.4531 0.165722 24.4844 0.571972ZM2.5 13.0017H7.5C8.88281 13.0017 10 14.1188 10 15.5017V33.0017C10 34.3845 8.88281 35.5017 7.5 35.5017H2.5C1.11719 35.5017 0 34.3845 0 33.0017V15.5017C0 14.1188 1.11719 13.0017 2.5 13.0017Z" fill="#0B0A0C"/>
</svg>
